<svg width="928" height="1238" viewBox="0 0 928 1238" fill="none" xmlns="http://www.w3.org/2000/svg">
<g clip-path="url(#clip0_147_3724)">
<path d="M927.32 149.065L463.66 0L0 149.065C0 149.065 35.1527 306.808 35.1527 471.225C35.1527 635.642 18.0213 770.023 18.0213 832.541C18.0213 895.06 25.1409 958.468 87.4369 1040.34C149.955 1122.22 275.882 1168.27 315.04 1182.07C354.197 1195.86 427.617 1216.11 463.438 1237.02C499.258 1216.33 572.678 1195.86 611.836 1182.07C650.993 1168.27 777.142 1122.22 839.438 1040.34C901.957 958.468 908.854 894.837 908.854 832.541C908.854 770.245 891.723 635.642 891.723 471.225C891.723 306.808 926.875 149.065 926.875 149.065" fill="#33CC99"/>
<path d="M641.726 248.311L549.48 273.04L570.041 313.328L641.726 248.311Z" fill="#002217"/>
<path d="M377.498 273.04L285.252 248.311L356.937 313.606L377.498 273.04Z" fill="#002217"/>
<path d="M392.792 431.136C417.243 430.302 433.636 430.025 440.026 430.025L431.413 344.725L463.644 255.813L495.874 344.725L487.261 430.025C493.651 430.025 509.766 430.302 534.495 431.136L550.61 340.279L463.921 118L377.232 340.279L393.348 431.136H392.792Z" fill="#002217"/>
<path d="M725.094 658.695L706.201 577.563C708.146 577.563 709.813 577.563 711.48 577.841L727.039 470.869C718.982 470.035 713.425 469.479 705.923 468.646L742.043 352.227V196.354L583.947 345.281L559.218 458.643C512.818 456.421 486.7 456.421 484.755 456.421L473.641 566.449C492.812 566.449 513.373 567.282 534.49 567.838C541.436 577.563 550.883 589.788 563.664 602.847C554.217 602.013 545.048 604.792 537.546 611.182L495.035 647.303C489.478 652.304 486.7 659.528 487.811 666.752L494.48 715.098C494.48 715.098 501.704 714.82 505.594 703.706L513.929 678.422L521.987 680.089C556.718 687.313 622.568 672.587 632.848 666.752L614.233 801.231C612.565 818.736 604.508 832.906 593.95 846.243C593.95 846.243 510.595 939.878 465.305 939.878C446.69 939.878 423.906 926.263 403.623 910.426L365.002 875.695C355.833 866.248 349.998 859.58 349.998 859.58C345.83 852.911 345.552 850.411 344.163 845.409C337.495 820.959 348.331 804.01 370.281 791.507L391.398 779.559C399.177 774.28 409.18 772.335 418.349 774.558L463.083 790.951L499.759 780.67L527.821 786.227L508.372 760.943C508.372 760.943 507.261 766.222 499.481 768.723L484.477 757.887L463.083 767.056V672.031C463.083 662.029 460.582 654.527 452.247 648.136L400.011 609.238C392.509 603.681 383.062 601.18 373.893 602.569L362.501 604.236C376.116 590.622 386.118 577.841 393.065 567.838C413.903 567.005 434.186 566.449 453.08 566.449L441.966 456.421C440.021 456.421 413.903 456.421 367.502 458.643L342.774 345.281L184.678 196.354V352.227L220.798 468.646C213.018 469.479 207.739 470.035 199.682 470.869L215.241 577.841C217.186 577.841 219.409 577.563 221.354 577.285L202.46 658.417L176.064 771.501L215.241 750.385C216.63 773.169 223.299 808.455 248.861 843.742L261.642 861.525L290.816 806.233C293.039 825.96 301.652 842.075 310.543 854.578L319.157 956.827C320.268 971.553 325.825 985.445 334.716 996.281L448.634 1137.71C456.414 1147.43 470.029 1147.43 477.809 1137.71L591.727 996.281C600.618 985.445 605.897 971.553 607.286 956.827L615.066 861.802C624.791 849.299 635.349 832.35 638.961 810.4L665.913 861.802L678.694 844.02C704.256 808.733 710.924 773.169 712.313 750.663L751.49 771.779L725.094 658.695ZM391.953 641.746L406.401 652.026L392.787 657.861L364.724 657.305L348.887 649.248L362.501 637.856L391.953 641.746ZM301.097 405.852L312.766 461.7C303.597 462.255 285.815 463.645 276.09 464.2L240.803 324.998C267.755 341.947 293.595 368.62 301.097 405.574M284.703 760.388L259.419 808.733C238.025 767.056 243.026 730.102 243.026 729.546L246.916 702.873L216.353 719.266L226.355 677.033C242.748 673.976 257.752 669.531 271.645 664.252L272.478 669.809L284.981 760.11L284.703 760.388ZM233.024 648.414L250.25 575.34C279.424 573.395 318.045 570.894 358.333 569.227C334.716 596.734 293.595 633.966 233.301 648.692M315.823 671.476C348.609 683.145 383.896 685.646 417.793 678.422L411.125 693.426C408.346 699.816 403.901 705.651 398.622 710.097L363.613 739.549L343.607 732.603C333.327 728.99 324.992 720.933 321.38 710.652L302.486 666.474L315.823 671.198V671.476ZM574.778 978.777L467.25 1112.14C465.305 1114.65 461.971 1114.65 460.026 1112.14L394.454 1031.01C368.336 1000.45 392.231 940.712 426.684 958.772C439.188 965.44 458.359 965.996 463.916 966.274C464.472 966.274 465.028 966.274 465.583 966.274C504.204 966.274 554.217 924.318 586.448 892.366L583.947 954.882C583.391 963.773 580.057 972.386 574.5 979.055M625.902 406.408C633.404 369.454 659.244 342.78 686.195 325.831L650.909 465.034C640.906 464.2 623.402 463.089 614.233 462.533L625.902 406.686V406.408ZM573.667 657.861L545.604 658.417L531.989 652.582L546.437 642.302L575.889 638.412L589.504 649.804L573.667 657.861ZM569.777 570.061C610.065 572.006 648.686 574.229 677.86 576.451L694.809 649.526C634.516 634.8 593.394 597.846 569.777 570.061ZM684.806 730.658C684.806 730.658 690.085 768.167 668.413 809.845L645.352 765.945L658.411 670.92L658.966 666.474C672.025 671.476 686.195 675.366 701.477 678.144L711.48 720.377L680.916 703.984L684.806 730.658Z" fill="#002217"/>
<path d="M500.024 829.016L508.081 827.905C539.2 822.07 541.701 805.399 541.701 805.399H480.296L463.348 812.345L446.399 805.399H384.994C384.994 805.399 415.28 847.632 421.948 853.745C436.952 867.637 441.953 867.637 463.348 867.637C483.075 867.637 500.857 866.248 508.637 848.188H453.901C438.619 848.188 427.227 827.071 427.227 827.071C451.122 831.795 475.851 832.628 500.302 829.294" fill="#002217"/>
</g>
<defs>
<clipPath id="clip0_147_3724">
<rect width="927.32" height="1237.02" fill="white"/>
</clipPath>
</defs>
</svg>
